<svg width="33" height="32" xmlns="http://www.w3.org/2000/svg">
 <!-- Created with Method Draw - http://github.com/duopixel/Method-Draw/ -->

 <g>
  <title>background</title>
  <rect fill="#fff" id="canvas_background" height="34" width="35" y="-1" x="-1"/>
  <g display="none" overflow="visible" y="0" x="0" height="100%" width="100%" id="canvasGrid">
   <rect fill="url(#gridpattern)" stroke-width="0" y="0" x="0" height="100%" width="100%"/>
  </g>
 </g>
 <g>
  <title>Layer 1</title>
  <g stroke="null" id="svg_18">
   <g stroke="null" transform="matrix(0.2519850714891294,0,0,0.19321446239036605,-11.304056846076758,-6.554539352793521) " id="svg_10">
    <path stroke="null" fill="#2d374b" d="m125.679421,97.744949l10.305,-17.485l27.776,43.262l0.013,8.3l-0.091,-57.131a4.3,4.3 0 0 0 -1.99,-3.428l-50.007,-28.763a4.408,4.408 0 0 0 -3.821,0.018a4.352,4.352 0 0 0 -0.448,0.259l-0.174,0.11l-48.541,28.128l-0.189,0.085a4.417,4.417 0 0 0 -0.717,0.418a4.29,4.29 0 0 0 -1.729,2.731a4.419,4.419 0 0 0 -0.062,0.505l0.076,46.556l25.872,-40.1c3.257,-5.317 10.354,-7.03 16.942,-6.937l7.732,0.2l-45.56,73.064l5.371,3.092l46.106,-76.083l20.379,-0.074l-45.987,78l19.166,11.03l2.29,1.317a4.4,4.4 0 0 0 3.087,0.061l50.71,-29.387l-9.7,5.618l-26.809,-43.366zm30.741,99.993l-19.356,-30.379l11.815,-20.049l25.42,40.066l-17.879,10.362z" data-name="Path 153" id="svg_16"/>
    <path stroke="null" fill="#28a0f0" d="m110.255421,123.992949l19.356,30.378l17.88,-10.362l-25.419,-40.065l-11.817,20.049z" data-name="Path 154" id="svg_15"/>
    <path stroke="null" fill="#28a0f0" d="m163.776419,131.822951l-0.013,-8.3l-27.776,-43.262l-10.311,17.483l26.814,43.366l9.7,-5.618a4.3,4.3 0 0 0 1.587,-3.129l-0.001,-0.54z" data-name="Path 155" id="svg_14"/>
    <path stroke="null" fill="#fff" d="m47.378421,139.65295l13.691,7.889l45.56,-73.064l-7.732,-0.2c-6.588,-0.093 -13.685,1.619 -16.942,6.937l-25.872,40.1l-8.7,13.373l0,4.969l-0.005,-0.004z" data-name="Path 156" id="svg_13"/>
    <path stroke="null" fill="#fff" d="m132.924421,74.47695l-20.378,0.074l-46.106,76.083l16.115,9.279l4.382,-7.433l45.987,-78.003z" data-name="Path 157" id="svg_12"/>
    <path stroke="null" fill="#96bedc" d="m172.360421,74.37195a12.98,12.98 0 0 0 -6.093,-10.435l-50.662,-29.134a13.178,13.178 0 0 0 -11.624,0c-0.423,0.213 -49.268,28.542 -49.268,28.542a13.016,13.016 0 0 0 -1.94,1.148a12.881,12.881 0 0 0 -5.4,9.854l0,60.338l8.7,-13.373l-0.067,-46.554a4.325,4.325 0 0 1 1.791,-3.236c0.23,-0.165 49.909,-28.921 50.067,-29a4.408,4.408 0 0 1 3.821,-0.018l50.007,28.765a4.3,4.3 0 0 1 1.99,3.428l0,57.672a4.2,4.2 0 0 1 -1.495,3.129l-9.7,5.618l-5,2.9l-17.88,10.362l-18.133,10.509a4.395,4.395 0 0 1 -3.087,-0.061l-21.453,-12.339l-4.382,7.432l19.28,11.1c0.638,0.362 1.206,0.684 1.672,0.946c0.722,0.4 1.214,0.675 1.387,0.759a12.528,12.528 0 0 0 5.118,1.053a12.89,12.89 0 0 0 4.72,-0.888l52.667,-30.5a12.876,12.876 0 0 0 4.962,-9.7l0.002,-58.317z" data-name="Path 158" id="svg_11"/>
   </g>
  </g>
 </g>
</svg>