<svg width="33" height="32" xmlns="http://www.w3.org/2000/svg">

 <g>
  <title>background</title>
  <rect fill="none" id="canvas_background" height="34" width="35" y="-1" x="-1"/>
 </g>
 <g>
  <title>Layer 1</title>
  <g stroke="null" id="symbol">
   <path stroke="null" fill="#2d374b" d="m19.328188,14.705779l2.327611,-3.949372l6.273821,9.771676l0.002936,1.874738l-0.020554,-12.904295a0.97125,0.97125 0 0 0 -0.449485,-0.774289l-11.295182,-6.496757a0.995644,0.995644 0 0 0 -0.863057,0.004066a0.982995,0.982995 0 0 0 -0.101191,0.058501l-0.039302,0.024846l-10.964054,6.353328l-0.04269,0.019199a0.997677,0.997677 0 0 0 -0.16195,0.094415a0.968991,0.968991 0 0 0 -0.390533,0.616856a0.998128,0.998128 0 0 0 -0.014004,0.114065l0.017166,10.515698l5.843761,-9.057468c0.735665,-1.200962 2.338679,-1.58788 3.826724,-1.566874l1.746442,0.045174l-10.290729,16.503114l1.213159,0.698396l10.414056,-17.185021l4.603046,-0.016715l-10.387177,17.618018l4.329063,2.491368l0.517247,0.297473a0.993837,0.993837 0 0 0 0.697267,0.013778l11.45397,-6.637701l-2.190959,1.268949l-6.055403,-9.795166zm6.943532,22.585621l-4.371979,-6.861766l2.668678,-4.528508l5.741667,9.049789l-4.038366,2.340486z" data-name="Path 153" id="Path_153"/>
   <path stroke="null" fill="#28a0f0" d="m15.844338,20.634468l4.371979,6.86154l4.038592,-2.340486l-5.741441,-9.049563l-2.66913,4.528508z" data-name="Path 154" id="Path_154"/>
   <path stroke="null" fill="#28a0f0" d="m27.933234,22.403046l-0.002936,-1.874738l-6.273821,-9.771676l-2.328966,3.948921l6.056532,9.795166l2.190959,-1.268949a0.97125,0.97125 0 0 0 0.358459,-0.706754l-0.000226,-0.121971z" data-name="Path 155" id="Path_155"/>
   <path stroke="null" fill="#fff" d="m1.642183,24.171624l3.092414,1.781904l10.290729,-16.503114l-1.746442,-0.045174c-1.488045,-0.021006 -3.091059,0.365687 -3.826724,1.566874l-5.843761,9.057468l-1.965087,3.020587l0,1.122358l-0.001129,-0.000903z" data-name="Path 156" id="Path_156"/>
   <path stroke="null" fill="#fff" d="m20.964631,9.450189l-4.60282,0.016715l-10.414056,17.185021l3.639928,2.095867l0.989771,-1.678907l10.387177,-17.618696z" data-name="Path 157" id="Path_157"/>
   <path stroke="null" fill="#96bedc" d="m29.87212,9.426472a2.931819,2.931819 0 0 0 -1.376238,-2.356975l-11.443128,-6.580556a2.976542,2.976542 0 0 0 -2.625536,0c-0.095544,0.048111 -11.128263,6.446839 -11.128263,6.446839a2.93995,2.93995 0 0 0 -0.438192,0.259301a2.909458,2.909458 0 0 0 -1.219709,2.225743l0,13.628666l1.965087,-3.020587l-0.015133,-10.515246a0.976897,0.976897 0 0 1 0.404537,-0.730922c0.051951,-0.037269 11.273047,-6.532445 11.308735,-6.550289a0.995644,0.995644 0 0 1 0.863057,-0.004066l11.295182,6.497209a0.97125,0.97125 0 0 1 0.449485,0.774289l0,13.026491a0.948663,0.948663 0 0 1 -0.337679,0.706754l-2.190959,1.268949l-1.12936,0.655029l-4.038592,2.340486l-4.095737,2.373689a0.992708,0.992708 0 0 1 -0.697267,-0.013778l-4.845633,-2.787035l-0.989771,1.678681l4.354813,2.507179c0.144106,0.081766 0.272402,0.154496 0.377658,0.213675c0.16308,0.090349 0.274209,0.152464 0.313284,0.171437a2.829725,2.829725 0 0 0 1.156013,0.237843a2.91149,2.91149 0 0 0 1.066116,-0.200574l11.896002,-6.889097a2.908328,2.908328 0 0 0 1.120777,-2.190959l0.000452,-13.172179z" data-name="Path 158" id="Path_158"/>
  </g>
 </g>
</svg>